REM DIRINDEX 1\2\3,1\2\4,1\2\5,1\2\6
REM DIRNAME cjc157,folder01,folder02,folder03,folder04,folder05
TITLE ""
FILE "069 069.mp3" MP3
  TRACK 01 AUDIO
    TITLE "0:"
    INDEX 01 00:00:00
  TRACK 02 AUDIO
    TITLE "3:cjc157_2574"
    INDEX 01 00:00:13
  TRACK 03 AUDIO
    TITLE "0:"
    INDEX 01 00:01:34
  TRACK 04 AUDIO
    TITLE "4:cjc157_2575"
    INDEX 01 00:02:06
  TRACK 05 AUDIO
    TITLE "0:"
    INDEX 01 00:03:08
  TRACK 06 AUDIO
    TITLE "5:cjc157_2576"
    INDEX 01 00:03:51
  TRACK 07 AUDIO
    TITLE "0:"
    INDEX 01 00:05:42
  TRACK 08 AUDIO
    TITLE "5:cjc157_2577"
    INDEX 01 00:06:10
  TRACK 09 AUDIO
    TITLE "0:"
    INDEX 01 00:07:68
  TRACK 10 AUDIO
    TITLE "3:cjc157_2578"
    INDEX 01 00:08:38
  TRACK 11 AUDIO
    TITLE "0:"
    INDEX 01 00:09:49
  TRACK 12 AUDIO
    TITLE "4:cjc157_2579"
    INDEX 01 00:10:23
  TRACK 13 AUDIO
    TITLE "0:"
    INDEX 01 00:11:31
  TRACK 14 AUDIO
    TITLE "5:cjc157_2580"
    INDEX 01 00:12:01
  TRACK 15 AUDIO
    TITLE "0:"
    INDEX 01 00:13:63
  TRACK 16 AUDIO
    TITLE "5:cjc157_2581"
    INDEX 01 00:14:33
  TRACK 17 AUDIO
    TITLE "0:"
    INDEX 01 00:16:32
  TRACK 18 AUDIO
    TITLE "5:cjc157_2582"
    INDEX 01 00:17:02
  TRACK 19 AUDIO
    TITLE "0:"
    INDEX 01 00:19:40
  TRACK 20 AUDIO
    TITLE "3:cjc157_2583"
    INDEX 01 00:20:10
  TRACK 21 AUDIO
    TITLE "0:"
    INDEX 01 00:21:37
  TRACK 22 AUDIO
    TITLE "4:cjc157_2584"
    INDEX 01 00:22:07
  TRACK 23 AUDIO
    TITLE "0:"
    INDEX 01 00:23:24
  TRACK 24 AUDIO
    TITLE "5:cjc157_2585"
    INDEX 01 00:23:67
  TRACK 25 AUDIO
    TITLE "0:"
    INDEX 01 00:27:38
  TRACK 26 AUDIO
    TITLE "5:cjc157_2586"
    INDEX 01 00:28:08
  TRACK 27 AUDIO
    TITLE "0:"
    INDEX 01 00:30:22
  TRACK 28 AUDIO
    TITLE "5:cjc157_2587"
    INDEX 01 00:30:65
  TRACK 29 AUDIO
    TITLE "0:"
    INDEX 01 00:33:48
  TRACK 30 AUDIO
    TITLE "3:cjc157_2588"
    INDEX 01 00:34:22
  TRACK 31 AUDIO
    TITLE "0:"
    INDEX 01 00:35:63
  TRACK 32 AUDIO
    TITLE "4:cjc157_2589"
    INDEX 01 00:36:38
  TRACK 33 AUDIO
    TITLE "0:"
    INDEX 01 00:39:52
  TRACK 34 AUDIO
    TITLE "5:cjc157_2590"
    INDEX 01 00:40:23
  TRACK 35 AUDIO
    TITLE "0:"
    INDEX 01 00:42:29
  TRACK 36 AUDIO
    TITLE "5:cjc157_2591"
    INDEX 01 00:43:01
  TRACK 37 AUDIO
    TITLE "0:"
    INDEX 01 00:45:14
  TRACK 38 AUDIO
    TITLE "3:cjc157_2592"
    INDEX 01 00:45:57
  TRACK 39 AUDIO
    TITLE "0:"
    INDEX 01 00:47:01
  TRACK 40 AUDIO
    TITLE "4:cjc157_2593"
    INDEX 01 00:47:46
  TRACK 41 AUDIO
    TITLE "0:"
    INDEX 01 00:48:67
  TRACK 42 AUDIO
    TITLE "5:cjc157_2594"
    INDEX 01 00:49:35
  TRACK 43 AUDIO
    TITLE "0:"
    INDEX 01 00:51:54
  TRACK 44 AUDIO
    TITLE "3:cjc157_2595"
    INDEX 01 00:52:26
  TRACK 45 AUDIO
    TITLE "0:"
    INDEX 01 00:53:45
  TRACK 46 AUDIO
    TITLE "4:cjc157_2596"
    INDEX 01 00:54:19
  TRACK 47 AUDIO
    TITLE "0:"
    INDEX 01 00:55:24
  TRACK 48 AUDIO
    TITLE "5:cjc157_2597"
    INDEX 01 00:55:71
  TRACK 49 AUDIO
    TITLE "0:"
    INDEX 01 00:57:74
  TRACK 50 AUDIO
    TITLE "5:cjc157_2598"
    INDEX 01 00:58:48
  TRACK 51 AUDIO
    TITLE "0:"
    INDEX 01 01:00:35
  TRACK 52 AUDIO
    TITLE "5:cjc157_2599"
    INDEX 01 01:01:03
  TRACK 53 AUDIO
    TITLE "0:"
    INDEX 01 01:02:48
  TRACK 54 AUDIO
    TITLE "5:cjc157_2600"
    INDEX 01 01:03:16
  TRACK 55 AUDIO
    TITLE "0:"
    INDEX 01 01:04:68
  TRACK 56 AUDIO
    TITLE "5:cjc157_2601"
    INDEX 01 01:05:38
  TRACK 57 AUDIO
    TITLE "0:"
    INDEX 01 01:06:67
  TRACK 58 AUDIO
    TITLE "3:cjc157_2602"
    INDEX 01 01:07:39
  TRACK 59 AUDIO
    TITLE "0:"
    INDEX 01 01:08:64
  TRACK 60 AUDIO
    TITLE "4:cjc157_2603"
    INDEX 01 01:09:38
  TRACK 61 AUDIO
    TITLE "0:"
    INDEX 01 01:12:54
  TRACK 62 AUDIO
    TITLE "5:cjc157_2604"
    INDEX 01 01:13:22
  TRACK 63 AUDIO
    TITLE "0:"
    INDEX 01 01:15:44
  TRACK 64 AUDIO
    TITLE "5:cjc157_2605"
    INDEX 01 01:16:18
  TRACK 65 AUDIO
    TITLE "0:"
    INDEX 01 01:18:31
  TRACK 66 AUDIO
    TITLE "3:cjc157_2606"
    INDEX 01 01:19:01
  TRACK 67 AUDIO
    TITLE "0:"
    INDEX 01 01:20:06
  TRACK 68 AUDIO
    TITLE "4:cjc157_2607"
    INDEX 01 01:20:53
  TRACK 69 AUDIO
    TITLE "0:"
    INDEX 01 01:21:70
  TRACK 70 AUDIO
    TITLE "5:cjc157_2608"
    INDEX 01 01:22:41
  TRACK 71 AUDIO
    TITLE "0:"
    INDEX 01 01:25:00
  TRACK 72 AUDIO
    TITLE "3:cjc157_2609"
    INDEX 01 01:25:49
  TRACK 73 AUDIO
    TITLE "0:"
    INDEX 01 01:26:68
  TRACK 74 AUDIO
    TITLE "4:cjc157_2610"
    INDEX 01 01:27:40
  TRACK 75 AUDIO
    TITLE "0:"
    INDEX 01 01:28:49
  TRACK 76 AUDIO
    TITLE "5:cjc157_2611"
    INDEX 01 01:29:21
  TRACK 77 AUDIO
    TITLE "0:"
    INDEX 01 01:31:53
  TRACK 78 AUDIO
    TITLE "5:cjc157_2612"
    INDEX 01 01:32:23
  TRACK 79 AUDIO
    TITLE "0:"
    INDEX 01 01:34:42
  TRACK 80 AUDIO
    TITLE "3:cjc157_2613"
    INDEX 01 01:35:14
  TRACK 81 AUDIO
    TITLE "0:"
    INDEX 01 01:36:29
  TRACK 82 AUDIO
    TITLE "4:cjc157_2614"
    INDEX 01 01:37:03
  TRACK 83 AUDIO
    TITLE "0:"
    INDEX 01 01:38:10
  TRACK 84 AUDIO
    TITLE "5:cjc157_2615"
    INDEX 01 01:38:59
  TRACK 85 AUDIO
    TITLE "0:"
    INDEX 01 01:40:31
  TRACK 86 AUDIO
    TITLE "5:cjc157_2616"
    INDEX 01 01:41:01
  TRACK 87 AUDIO
    TITLE "0:"
    INDEX 01 01:42:06
